<svg width="200" height="32" viewBox="0 0 200 32" fill="none" xmlns="http://www.w3.org/2000/svg">
<g clip-path="url(#clip0)">
<path d="M8.23606 21.9627L10.0116 23.7383L12.8207 20.9292L11.0452 19.1536L8.23606 21.9627Z" fill="#AAB7BF"/>
<path d="M5.39556 31.0638C4.17369 32.3003 2.16458 32.3189 0.924276 31.0786C-0.319795 29.8346 -0.301231 27.8257 0.939141 26.6077C0.97257 26.5743 1.0134 26.5334 1.05423 26.4999L7.3672 21.406C7.57599 21.2348 7.88056 21.2499 8.07147 21.4408L10.5592 23.9284C10.7501 24.1192 10.7652 24.4236 10.5942 24.6324L5.50318 30.9486C5.46982 30.9895 5.43269 31.0267 5.39556 31.0638Z" fill="white"/>
<path d="M20.0348 -2.57302e-05C13.4522 -2.51547e-05 8.11594 5.3466 8.11594 11.942C8.11594 18.5374 13.4522 23.884 20.0348 23.884C26.6174 23.884 31.9536 18.5374 31.9536 11.942C31.9536 5.3466 26.6174 -2.63056e-05 20.0348 -2.57302e-05Z" fill="white"/>
<path d="M20.0349 20.7304C24.8758 20.7304 28.8001 16.7957 28.8001 11.942C28.8001 7.08827 24.8758 3.15356 20.0349 3.15356C15.194 3.15356 11.2697 7.08827 11.2697 11.942C11.2697 16.7957 15.194 20.7304 20.0349 20.7304Z" fill="#343D4E"/>
<path d="M5.37971 31.058C4.16142 32.3022 2.15822 32.3209 0.92156 31.0729C-0.318856 29.8211 -0.300346 27.7996 0.936382 26.574L5.37971 31.058Z" fill="#AAB7BF"/>
<path d="M54.2578 10.1157C53.8721 10.6187 53.3374 10.9995 52.6538 11.2583C51.9702 11.5171 51.1938 11.6465 50.3247 11.6465C49.4312 11.6465 48.6401 11.4438 47.9517 11.0386C47.2632 10.6333 46.731 10.0547 46.355 9.30273C45.9839 8.5459 45.791 7.66455 45.7764 6.65869V5.82373C45.7764 4.2124 46.1621 2.95508 46.9336 2.05176C47.7051 1.14355 48.7817 0.689453 50.1636 0.689453C51.3501 0.689453 52.2925 0.982422 52.9907 1.56836C53.689 2.1543 54.1089 2.99902 54.2505 4.10254H52.4341C52.229 2.81836 51.4844 2.17627 50.2002 2.17627C49.3701 2.17627 48.7378 2.47656 48.3032 3.07715C47.8735 3.67285 47.6514 4.54932 47.6367 5.70654V6.52686C47.6367 7.6792 47.8784 8.5752 48.3618 9.21484C48.8501 9.84961 49.5264 10.167 50.3906 10.167C51.3379 10.167 52.0117 9.95215 52.4121 9.52246V7.43506H50.2148V6.02881H54.2578V10.1157ZM60.9229 10.7236C60.4004 11.3389 59.6582 11.6465 58.6963 11.6465C57.8369 11.6465 57.1851 11.395 56.7407 10.8921C56.3013 10.3892 56.0815 9.66162 56.0815 8.70947V3.5752H57.8613V8.6875C57.8613 9.69336 58.2788 10.1963 59.1138 10.1963C59.978 10.1963 60.5615 9.88623 60.8643 9.26611V3.5752H62.644V11.5H60.9668L60.9229 10.7236ZM66.3501 11.5H64.5703V3.5752H66.3501V11.5ZM64.4604 1.51709C64.4604 1.24365 64.5459 1.0166 64.7168 0.835938C64.8926 0.655273 65.1416 0.564941 65.4639 0.564941C65.7861 0.564941 66.0352 0.655273 66.2109 0.835938C66.3867 1.0166 66.4746 1.24365 66.4746 1.51709C66.4746 1.78564 66.3867 2.01025 66.2109 2.19092C66.0352 2.3667 65.7861 2.45459 65.4639 2.45459C65.1416 2.45459 64.8926 2.3667 64.7168 2.19092C64.5459 2.01025 64.4604 1.78564 64.4604 1.51709ZM67.9614 7.479C67.9614 6.2583 68.2446 5.2793 68.811 4.54199C69.3774 3.7998 70.1367 3.42871 71.0889 3.42871C71.9287 3.42871 72.6074 3.72168 73.125 4.30762V0.25H74.9048V11.5H73.2935L73.2056 10.6797C72.6733 11.3242 71.9629 11.6465 71.0742 11.6465C70.1465 11.6465 69.3945 11.2729 68.8184 10.5259C68.2471 9.77881 67.9614 8.76318 67.9614 7.479ZM69.7412 7.63281C69.7412 8.43848 69.895 9.06836 70.2026 9.52246C70.5151 9.97168 70.957 10.1963 71.5283 10.1963C72.2559 10.1963 72.7881 9.87158 73.125 9.22217V5.83838C72.7979 5.20361 72.2705 4.88623 71.543 4.88623C70.9668 4.88623 70.5225 5.11572 70.21 5.57471C69.8975 6.02881 69.7412 6.71484 69.7412 7.63281ZM80.2515 11.6465C79.1235 11.6465 78.208 11.2925 77.5049 10.5845C76.8066 9.87158 76.4575 8.92432 76.4575 7.74268V7.52295C76.4575 6.73193 76.6089 6.02637 76.9116 5.40625C77.2192 4.78125 77.6489 4.29541 78.2007 3.94873C78.7524 3.60205 79.3677 3.42871 80.0464 3.42871C81.1255 3.42871 81.958 3.77295 82.5439 4.46143C83.1348 5.1499 83.4302 6.12402 83.4302 7.38379V8.10156H78.252C78.3057 8.75586 78.5229 9.27344 78.9038 9.6543C79.2896 10.0352 79.7729 10.2256 80.354 10.2256C81.1694 10.2256 81.8335 9.896 82.3462 9.23682L83.3057 10.1523C82.9883 10.626 82.5635 10.9946 82.0312 11.2583C81.5039 11.5171 80.9106 11.6465 80.2515 11.6465ZM80.0391 4.85693C79.5508 4.85693 79.1553 5.02783 78.8525 5.36963C78.5547 5.71143 78.3643 6.1875 78.2812 6.79785H81.6724V6.66602C81.6333 6.07031 81.4746 5.62109 81.1963 5.31836C80.918 5.01074 80.5322 4.85693 80.0391 4.85693Z" fill="white"/>
<path d="M54.4482 26.1133L56.0889 18.0859H57.9272L55.4663 28.75H53.6938L51.665 20.9644L49.5923 28.75H47.8125L45.3516 18.0859H47.1899L48.8452 26.0986L50.8813 18.0859H52.4341L54.4482 26.1133ZM61.0034 28.75H59.2236V20.8252H61.0034V28.75ZM59.1138 18.7671C59.1138 18.4937 59.1992 18.2666 59.3701 18.0859C59.5459 17.9053 59.7949 17.8149 60.1172 17.8149C60.4395 17.8149 60.6885 17.9053 60.8643 18.0859C61.04 18.2666 61.1279 18.4937 61.1279 18.7671C61.1279 19.0356 61.04 19.2603 60.8643 19.4409C60.6885 19.6167 60.4395 19.7046 60.1172 19.7046C59.7949 19.7046 59.5459 19.6167 59.3701 19.4409C59.1992 19.2603 59.1138 19.0356 59.1138 18.7671ZM64.5996 20.8252L64.6509 21.7407C65.2368 21.0327 66.0059 20.6787 66.958 20.6787C68.6084 20.6787 69.4482 21.6235 69.4775 23.5132V28.75H67.6978V23.6157C67.6978 23.1128 67.5879 22.7417 67.3682 22.5024C67.1533 22.2583 66.7993 22.1362 66.3062 22.1362C65.5884 22.1362 65.0537 22.4609 64.7021 23.1104V28.75H62.9224V20.8252H64.5996ZM70.9644 24.729C70.9644 23.5083 71.2476 22.5293 71.814 21.792C72.3804 21.0498 73.1396 20.6787 74.0918 20.6787C74.9316 20.6787 75.6104 20.9717 76.1279 21.5576V17.5H77.9077V28.75H76.2964L76.2085 27.9297C75.6763 28.5742 74.9658 28.8965 74.0771 28.8965C73.1494 28.8965 72.3975 28.5229 71.8213 27.7759C71.25 27.0288 70.9644 26.0132 70.9644 24.729ZM72.7441 24.8828C72.7441 25.6885 72.8979 26.3184 73.2056 26.7725C73.5181 27.2217 73.96 27.4463 74.5312 27.4463C75.2588 27.4463 75.791 27.1216 76.1279 26.4722V23.0884C75.8008 22.4536 75.2734 22.1362 74.5459 22.1362C73.9697 22.1362 73.5254 22.3657 73.2129 22.8247C72.9004 23.2788 72.7441 23.9648 72.7441 24.8828ZM79.4312 24.7144C79.4312 23.938 79.585 23.2397 79.8926 22.6196C80.2002 21.9946 80.6323 21.5161 81.189 21.1841C81.7456 20.8472 82.3853 20.6787 83.1079 20.6787C84.1772 20.6787 85.0439 21.0229 85.708 21.7114C86.377 22.3999 86.7383 23.313 86.792 24.4507L86.7993 24.8682C86.7993 25.6494 86.6479 26.3477 86.3452 26.9629C86.0474 27.5781 85.6177 28.0542 85.0562 28.3911C84.4995 28.728 83.855 28.8965 83.1226 28.8965C82.0044 28.8965 81.1084 28.5254 80.4346 27.7832C79.7656 27.0361 79.4312 26.0425 79.4312 24.8022V24.7144ZM81.2109 24.8682C81.2109 25.6836 81.3794 26.3232 81.7163 26.7871C82.0532 27.2461 82.522 27.4756 83.1226 27.4756C83.7231 27.4756 84.1895 27.2412 84.5215 26.7725C84.8584 26.3037 85.0269 25.6177 85.0269 24.7144C85.0269 23.9136 84.8535 23.2788 84.5068 22.8101C84.165 22.3413 83.6987 22.1069 83.1079 22.1069C82.5269 22.1069 82.0654 22.3389 81.7236 22.8027C81.3818 23.2617 81.2109 23.9502 81.2109 24.8682ZM95.2661 26.2964L96.5259 20.8252H98.2617L96.1011 28.75H94.6362L92.937 23.3081L91.2671 28.75H89.8022L87.6343 20.8252H89.3701L90.6519 26.2378L92.2778 20.8252H93.6182L95.2661 26.2964ZM103.894 26.5967C103.894 26.2793 103.762 26.0376 103.499 25.8716C103.24 25.7056 102.808 25.5591 102.202 25.4321C101.597 25.3052 101.091 25.144 100.686 24.9487C99.7974 24.519 99.353 23.8965 99.353 23.0811C99.353 22.3975 99.6411 21.8262 100.217 21.3672C100.793 20.9082 101.526 20.6787 102.415 20.6787C103.362 20.6787 104.126 20.9131 104.707 21.3818C105.293 21.8506 105.586 22.4585 105.586 23.2056H103.806C103.806 22.8638 103.679 22.5806 103.425 22.356C103.171 22.1265 102.834 22.0117 102.415 22.0117C102.024 22.0117 101.704 22.1021 101.455 22.2827C101.211 22.4634 101.089 22.7051 101.089 23.0078C101.089 23.2812 101.204 23.4937 101.433 23.645C101.663 23.7964 102.126 23.9502 102.825 24.1064C103.523 24.2578 104.07 24.4409 104.465 24.6558C104.866 24.8657 105.161 25.1196 105.352 25.4175C105.547 25.7153 105.645 26.0767 105.645 26.5015C105.645 27.2144 105.349 27.793 104.758 28.2373C104.167 28.6768 103.394 28.8965 102.437 28.8965C101.787 28.8965 101.208 28.7793 100.701 28.5449C100.193 28.3105 99.7974 27.9883 99.5142 27.5781C99.231 27.168 99.0894 26.7261 99.0894 26.2524H100.818C100.842 26.6724 101.001 26.9971 101.294 27.2266C101.587 27.4512 101.975 27.5635 102.458 27.5635C102.927 27.5635 103.284 27.4756 103.528 27.2998C103.772 27.1191 103.894 26.8848 103.894 26.5967ZM116.682 26.0034C116.682 25.5347 116.516 25.1733 116.184 24.9194C115.857 24.6655 115.264 24.4092 114.404 24.1504C113.545 23.8916 112.861 23.6035 112.354 23.2861C111.382 22.6758 110.896 21.8799 110.896 20.8984C110.896 20.0391 111.245 19.3311 111.943 18.7744C112.646 18.2178 113.557 17.9395 114.675 17.9395C115.417 17.9395 116.079 18.0762 116.66 18.3496C117.241 18.623 117.698 19.0137 118.03 19.5215C118.362 20.0244 118.528 20.5835 118.528 21.1987H116.682C116.682 20.6421 116.506 20.2075 116.155 19.895C115.808 19.5776 115.31 19.4189 114.661 19.4189C114.055 19.4189 113.584 19.5483 113.247 19.8071C112.915 20.0659 112.749 20.4272 112.749 20.8911C112.749 21.2817 112.93 21.6089 113.291 21.8726C113.652 22.1313 114.248 22.3853 115.078 22.6343C115.908 22.8784 116.575 23.1592 117.078 23.4766C117.581 23.7891 117.949 24.1504 118.184 24.5605C118.418 24.9658 118.535 25.4419 118.535 25.9888C118.535 26.8774 118.193 27.5854 117.51 28.1128C116.831 28.6353 115.908 28.8965 114.741 28.8965C113.97 28.8965 113.259 28.7549 112.61 28.4717C111.965 28.1836 111.462 27.7881 111.101 27.2852C110.745 26.7822 110.566 26.1963 110.566 25.5273H112.419C112.419 26.1328 112.62 26.6016 113.02 26.9336C113.42 27.2656 113.994 27.4316 114.741 27.4316C115.386 27.4316 115.869 27.3022 116.191 27.0435C116.519 26.7798 116.682 26.4331 116.682 26.0034ZM122.219 18.8989V20.8252H123.618V22.1436H122.219V26.5674C122.219 26.8701 122.278 27.0898 122.395 27.2266C122.517 27.3584 122.732 27.4243 123.04 27.4243C123.245 27.4243 123.452 27.3999 123.662 27.3511V28.728C123.257 28.8403 122.866 28.8965 122.49 28.8965C121.123 28.8965 120.439 28.1421 120.439 26.6333V22.1436H119.136V20.8252H120.439V18.8989H122.219ZM127.756 26.2012L129.368 20.8252H131.265L128.115 29.9512C127.632 31.2842 126.812 31.9507 125.654 31.9507C125.396 31.9507 125.11 31.9067 124.797 31.8188V30.4419L125.134 30.4639C125.583 30.4639 125.92 30.3809 126.145 30.2148C126.375 30.0537 126.555 29.7803 126.687 29.3945L126.943 28.7134L124.16 20.8252H126.079L127.756 26.2012ZM134.187 28.75H132.407V17.5H134.187V28.75ZM139.622 28.8965C138.494 28.8965 137.578 28.5425 136.875 27.8345C136.177 27.1216 135.828 26.1743 135.828 24.9927V24.7729C135.828 23.9819 135.979 23.2764 136.282 22.6562C136.589 22.0312 137.019 21.5454 137.571 21.1987C138.123 20.8521 138.738 20.6787 139.417 20.6787C140.496 20.6787 141.328 21.0229 141.914 21.7114C142.505 22.3999 142.8 23.374 142.8 24.6338V25.3516H137.622C137.676 26.0059 137.893 26.5234 138.274 26.9043C138.66 27.2852 139.143 27.4756 139.724 27.4756C140.54 27.4756 141.204 27.146 141.716 26.4868L142.676 27.4023C142.358 27.876 141.934 28.2446 141.401 28.5083C140.874 28.7671 140.281 28.8965 139.622 28.8965ZM139.409 22.1069C138.921 22.1069 138.525 22.2778 138.223 22.6196C137.925 22.9614 137.734 23.4375 137.651 24.0479H141.042V23.916C141.003 23.3203 140.845 22.8711 140.566 22.5684C140.288 22.2607 139.902 22.1069 139.409 22.1069ZM148.096 28.75V18.0859H151.75C152.957 18.0859 153.875 18.3276 154.504 18.811C155.134 19.2944 155.449 20.0146 155.449 20.9717C155.449 21.46 155.317 21.8994 155.054 22.29C154.79 22.6807 154.404 22.9834 153.896 23.1982C154.473 23.3545 154.917 23.6499 155.229 24.0845C155.547 24.5142 155.706 25.0317 155.706 25.6372C155.706 26.6382 155.383 27.4072 154.739 27.9443C154.099 28.4814 153.181 28.75 151.985 28.75H148.096ZM149.949 23.938V27.2705H152.007C152.588 27.2705 153.042 27.1265 153.369 26.8384C153.696 26.5503 153.86 26.1499 153.86 25.6372C153.86 24.5288 153.293 23.9624 152.161 23.938H149.949ZM149.949 22.5757H151.765C152.341 22.5757 152.791 22.4463 153.113 22.1875C153.44 21.9238 153.604 21.5527 153.604 21.0742C153.604 20.5469 153.452 20.166 153.149 19.9316C152.852 19.6973 152.385 19.5801 151.75 19.5801H149.949V22.5757ZM162.188 27.9736C161.665 28.5889 160.923 28.8965 159.961 28.8965C159.102 28.8965 158.45 28.645 158.005 28.1421C157.566 27.6392 157.346 26.9116 157.346 25.9595V20.8252H159.126V25.9375C159.126 26.9434 159.543 27.4463 160.378 27.4463C161.243 27.4463 161.826 27.1362 162.129 26.5161V20.8252H163.909V28.75H162.231L162.188 27.9736ZM167.615 28.75H165.835V20.8252H167.615V28.75ZM165.725 18.7671C165.725 18.4937 165.811 18.2666 165.981 18.0859C166.157 17.9053 166.406 17.8149 166.729 17.8149C167.051 17.8149 167.3 17.9053 167.476 18.0859C167.651 18.2666 167.739 18.4937 167.739 18.7671C167.739 19.0356 167.651 19.2603 167.476 19.4409C167.3 19.6167 167.051 19.7046 166.729 19.7046C166.406 19.7046 166.157 19.6167 165.981 19.4409C165.811 19.2603 165.725 19.0356 165.725 18.7671ZM171.453 28.75H169.673V17.5H171.453V28.75ZM173.064 24.729C173.064 23.5083 173.347 22.5293 173.914 21.792C174.48 21.0498 175.239 20.6787 176.191 20.6787C177.031 20.6787 177.71 20.9717 178.228 21.5576V17.5H180.007V28.75H178.396L178.308 27.9297C177.776 28.5742 177.065 28.8965 176.177 28.8965C175.249 28.8965 174.497 28.5229 173.921 27.7759C173.35 27.0288 173.064 26.0132 173.064 24.729ZM174.844 24.8828C174.844 25.6885 174.998 26.3184 175.305 26.7725C175.618 27.2217 176.06 27.4463 176.631 27.4463C177.358 27.4463 177.891 27.1216 178.228 26.4722V23.0884C177.9 22.4536 177.373 22.1362 176.646 22.1362C176.069 22.1362 175.625 22.3657 175.312 22.8247C175 23.2788 174.844 23.9648 174.844 24.8828ZM185.354 28.8965C184.226 28.8965 183.311 28.5425 182.607 27.8345C181.909 27.1216 181.56 26.1743 181.56 24.9927V24.7729C181.56 23.9819 181.711 23.2764 182.014 22.6562C182.322 22.0312 182.751 21.5454 183.303 21.1987C183.855 20.8521 184.47 20.6787 185.149 20.6787C186.228 20.6787 187.061 21.0229 187.646 21.7114C188.237 22.3999 188.533 23.374 188.533 24.6338V25.3516H183.354C183.408 26.0059 183.625 26.5234 184.006 26.9043C184.392 27.2852 184.875 27.4756 185.457 27.4756C186.272 27.4756 186.936 27.146 187.449 26.4868L188.408 27.4023C188.091 27.876 187.666 28.2446 187.134 28.5083C186.606 28.7671 186.013 28.8965 185.354 28.8965ZM185.142 22.1069C184.653 22.1069 184.258 22.2778 183.955 22.6196C183.657 22.9614 183.467 23.4375 183.384 24.0479H186.775V23.916C186.736 23.3203 186.577 22.8711 186.299 22.5684C186.021 22.2607 185.635 22.1069 185.142 22.1069ZM194.07 22.4512C193.835 22.4121 193.594 22.3926 193.345 22.3926C192.529 22.3926 191.98 22.7051 191.697 23.3301V28.75H189.917V20.8252H191.616L191.66 21.7114C192.09 21.0229 192.686 20.6787 193.447 20.6787C193.701 20.6787 193.911 20.7129 194.077 20.7812L194.07 22.4512Z" fill="#0B94EC"/>
</g>
<defs>
<clipPath id="clip0">
<rect width="200" height="32" fill="white"/>
</clipPath>
</defs>
</svg>
